<svg xmlns="http://www.w3.org/2000/svg" xmlns:xlink="http://www.w3.org/1999/xlink" width="189" zoomAndPan="magnify" viewBox="0 0 141.75 70.499998" height="94" preserveAspectRatio="xMidYMid meet" version="1.0"><defs><g/><clipPath id="75a843005a"><path d="M 1.121094 1 L 138 1 L 138 64 L 1.121094 64 Z M 1.121094 1 " clip-rule="nonzero"/></clipPath><clipPath id="b6dad5c6c9"><path d="M 0.121094 10 L 48 10 L 48 58 L 0.121094 58 Z M 0.121094 10 " clip-rule="nonzero"/></clipPath><clipPath id="762dcb8c93"><path d="M 2 3 L 45 3 L 45 45 L 2 45 Z M 2 3 " clip-rule="nonzero"/></clipPath><clipPath id="5ad75cd7e0"><path d="M 37.175781 0.589844 L 46.945312 10.359375 L 9.886719 47.417969 L 0.117188 37.648438 Z M 37.175781 0.589844 " clip-rule="nonzero"/></clipPath><clipPath id="b742c3ae16"><path d="M 42.0625 5.472656 C 44.757812 8.171875 44.757812 12.546875 42.0625 15.242188 L 14.773438 42.53125 C 12.074219 45.230469 7.703125 45.230469 5.003906 42.53125 C 2.304688 39.832031 2.304688 35.457031 5.003906 32.761719 L 32.289062 5.472656 C 34.988281 2.777344 39.363281 2.777344 42.0625 5.472656 Z M 42.0625 5.472656 " clip-rule="nonzero"/></clipPath><clipPath id="89cb5ce148"><path d="M 0.234375 0 L 42.890625 0 L 42.890625 42 L 0.234375 42 Z M 0.234375 0 " clip-rule="nonzero"/></clipPath><clipPath id="1fb3c4510e"><path d="M 35.175781 -2.410156 L 44.945312 7.359375 L 7.886719 44.417969 L -1.882812 34.648438 Z M 35.175781 -2.410156 " clip-rule="nonzero"/></clipPath><clipPath id="fcfd36e3b4"><path d="M 40.0625 2.472656 C 42.757812 5.171875 42.757812 9.546875 40.0625 12.242188 L 12.773438 39.53125 C 10.074219 42.230469 5.703125 42.230469 3.003906 39.53125 C 0.304688 36.832031 0.304688 32.457031 3.003906 29.761719 L 30.289062 2.472656 C 32.988281 -0.222656 37.363281 -0.222656 40.0625 2.472656 Z M 40.0625 2.472656 " clip-rule="nonzero"/></clipPath><clipPath id="fa40e3649a"><rect x="0" width="43" y="0" height="42"/></clipPath><clipPath id="213e698b6e"><path d="M 24.96875 26.007812 L 43.578125 26.007812 L 43.578125 44.945312 L 24.96875 44.945312 Z M 24.96875 26.007812 " clip-rule="nonzero"/></clipPath><clipPath id="20c15d5326"><path d="M 43.578125 27.863281 L 43.578125 40.5 C 43.578125 41.679688 43.109375 42.8125 42.277344 43.644531 C 41.441406 44.480469 40.3125 44.945312 39.132812 44.945312 L 26.851562 44.945312 C 26.097656 44.945312 25.421875 44.496094 25.132812 43.804688 C 24.839844 43.113281 24.996094 42.3125 25.519531 41.777344 L 40.460938 26.585938 C 40.980469 26.058594 41.765625 25.898438 42.449219 26.175781 C 43.132812 26.457031 43.578125 27.121094 43.578125 27.863281 Z M 43.578125 27.863281 " clip-rule="nonzero"/></clipPath><clipPath id="17d253d69a"><path d="M 0.96875 0.0078125 L 19.578125 0.0078125 L 19.578125 18.945312 L 0.96875 18.945312 Z M 0.96875 0.0078125 " clip-rule="nonzero"/></clipPath><clipPath id="dd240d04cc"><path d="M 19.578125 1.863281 L 19.578125 14.5 C 19.578125 15.679688 19.109375 16.8125 18.277344 17.644531 C 17.441406 18.480469 16.3125 18.945312 15.132812 18.945312 L 2.851562 18.945312 C 2.097656 18.945312 1.421875 18.496094 1.132812 17.804688 C 0.839844 17.113281 0.996094 16.3125 1.519531 15.777344 L 16.460938 0.585938 C 16.980469 0.0585938 17.765625 -0.101562 18.449219 0.175781 C 19.132812 0.457031 19.578125 1.121094 19.578125 1.863281 Z M 19.578125 1.863281 " clip-rule="nonzero"/></clipPath><clipPath id="13229812f6"><rect x="0" width="20" y="0" height="19"/></clipPath><clipPath id="cfa367c6bf"><path d="M 2.125 3.84375 L 16.558594 3.84375 L 16.558594 18.277344 L 2.125 18.277344 Z M 2.125 3.84375 " clip-rule="nonzero"/></clipPath><clipPath id="18b234d6e1"><path d="M 9.339844 3.84375 C 5.355469 3.84375 2.125 7.074219 2.125 11.0625 C 2.125 15.046875 5.355469 18.277344 9.339844 18.277344 C 13.328125 18.277344 16.558594 15.046875 16.558594 11.0625 C 16.558594 7.074219 13.328125 3.84375 9.339844 3.84375 Z M 9.339844 3.84375 " clip-rule="nonzero"/></clipPath><clipPath id="017da3166c"><path d="M 0.125 0.84375 L 14.558594 0.84375 L 14.558594 15.277344 L 0.125 15.277344 Z M 0.125 0.84375 " clip-rule="nonzero"/></clipPath><clipPath id="00965c9f9d"><path d="M 7.339844 0.84375 C 3.355469 0.84375 0.125 4.074219 0.125 8.0625 C 0.125 12.046875 3.355469 15.277344 7.339844 15.277344 C 11.328125 15.277344 14.558594 12.046875 14.558594 8.0625 C 14.558594 4.074219 11.328125 0.84375 7.339844 0.84375 Z M 7.339844 0.84375 " clip-rule="nonzero"/></clipPath><clipPath id="a849af25f4"><rect x="0" width="15" y="0" height="16"/></clipPath><clipPath id="92fbd7835a"><rect x="0" width="48" y="0" height="48"/></clipPath><clipPath id="b00f48655e"><path d="M 49 0.90625 L 136.402344 0.90625 L 136.402344 62.628906 L 49 62.628906 Z M 49 0.90625 " clip-rule="nonzero"/></clipPath><clipPath id="6accd693cb"><path d="M 0.183594 0.90625 L 87.402344 0.90625 L 87.402344 39 L 0.183594 39 Z M 0.183594 0.90625 " clip-rule="nonzero"/></clipPath><clipPath id="57e8736b03"><rect x="0" width="88" y="0" height="39"/></clipPath><clipPath id="8e8c0d7905"><path d="M 2 24 L 72 24 L 72 62.628906 L 2 62.628906 Z M 2 24 " clip-rule="nonzero"/></clipPath><clipPath id="ec28794284"><path d="M 0.0898438 14 L 24 14 L 24 30 L 0.0898438 30 Z M 0.0898438 14 " clip-rule="nonzero"/></clipPath><clipPath id="cb345b4a97"><path d="M 54 8 L 69.675781 8 L 69.675781 30 L 54 30 Z M 54 8 " clip-rule="nonzero"/></clipPath><clipPath id="0865fbc548"><rect x="0" width="70" y="0" height="39"/></clipPath><clipPath id="69fbf42479"><rect x="0" width="88" y="0" height="63"/></clipPath><clipPath id="0e2593be0c"><rect x="0" width="137" y="0" height="63"/></clipPath></defs><g clip-path="url(#75a843005a)"><g transform="matrix(1, 0, 0, 1, 1, 1)"><g clip-path="url(#0e2593be0c)"><g clip-path="url(#b6dad5c6c9)"><g transform="matrix(1, 0, 0, 1, -0.000000000000000222, 10)"><g clip-path="url(#92fbd7835a)"><g clip-path="url(#762dcb8c93)"><g clip-path="url(#5ad75cd7e0)"><g clip-path="url(#b742c3ae16)"><g transform="matrix(1, 0, 0, 1, 2, 3)"><g clip-path="url(#fa40e3649a)"><g clip-path="url(#89cb5ce148)"><g clip-path="url(#1fb3c4510e)"><g clip-path="url(#fcfd36e3b4)"><path fill="#004aad" d="M 35.175781 -2.410156 L 44.945312 7.359375 L 7.886719 44.417969 L -1.882812 34.648438 Z M 35.175781 -2.410156 " fill-opacity="1" fill-rule="nonzero"/></g></g></g></g></g></g></g></g><g clip-path="url(#213e698b6e)"><g clip-path="url(#20c15d5326)"><g transform="matrix(1, 0, 0, 1, 24, 26)"><g clip-path="url(#13229812f6)"><g clip-path="url(#17d253d69a)"><g clip-path="url(#dd240d04cc)"><path fill="#004aad" d="M -1.59375 18.945312 L -1.59375 -2.558594 L 19.578125 -2.558594 L 19.578125 18.945312 Z M -1.59375 18.945312 " fill-opacity="1" fill-rule="nonzero"/></g></g></g></g></g></g><g clip-path="url(#cfa367c6bf)"><g clip-path="url(#18b234d6e1)"><g transform="matrix(1, 0, 0, 1, 2, 3)"><g clip-path="url(#a849af25f4)"><g clip-path="url(#017da3166c)"><g clip-path="url(#00965c9f9d)"><path fill="#ff66c4" d="M 0.125 0.84375 L 14.558594 0.84375 L 14.558594 15.277344 L 0.125 15.277344 Z M 0.125 0.84375 " fill-opacity="1" fill-rule="nonzero"/></g></g></g></g></g></g></g></g></g><g clip-path="url(#b00f48655e)"><g transform="matrix(1, 0, 0, 1, 49, -0.000000000000000222)"><g clip-path="url(#69fbf42479)"><g clip-path="url(#6accd693cb)"><g transform="matrix(1, 0, 0, 1, -0.000000000000021316, -0.000000000000000222)"><g clip-path="url(#57e8736b03)"><g fill="#000000" fill-opacity="1"><g transform="translate(0.207897, 29.957944)"><g><path d="M 10.785156 -15.839844 C 8.535156 -15.839844 6.902344 -15.007812 5.792969 -13.589844 L 5.792969 -15.410156 L 1.816406 -15.410156 L 1.816406 6.164062 L 5.792969 6.164062 L 5.792969 -1.816406 C 6.902344 -0.402344 8.535156 0.429688 10.785156 0.429688 C 14.917969 0.429688 18.304688 -3.113281 18.304688 -7.703125 C 18.304688 -12.296875 14.917969 -15.839844 10.785156 -15.839844 Z M 10.046875 -3.359375 C 7.613281 -3.359375 5.792969 -5.117188 5.792969 -7.703125 C 5.792969 -10.292969 7.613281 -12.050781 10.046875 -12.050781 C 12.511719 -12.050781 14.332031 -10.292969 14.332031 -7.703125 C 14.332031 -5.117188 12.511719 -3.359375 10.046875 -3.359375 Z M 10.046875 -3.359375 "/></g></g></g><g fill="#000000" fill-opacity="1"><g transform="translate(19.499342, 29.957944)"><g><path d="M 13.527344 -15.410156 L 13.527344 -13.589844 C 12.417969 -14.976562 10.753906 -15.839844 8.507812 -15.839844 C 4.40625 -15.839844 1.015625 -12.296875 1.015625 -7.703125 C 1.015625 -3.113281 4.40625 0.429688 8.507812 0.429688 C 10.753906 0.429688 12.417969 -0.429688 13.527344 -1.816406 L 13.527344 0 L 17.503906 0 L 17.503906 -15.410156 Z M 9.246094 -3.359375 C 6.8125 -3.359375 4.992188 -5.117188 4.992188 -7.703125 C 4.992188 -10.292969 6.8125 -12.050781 9.246094 -12.050781 C 11.710938 -12.050781 13.527344 -10.292969 13.527344 -7.703125 C 13.527344 -5.117188 11.710938 -3.359375 9.246094 -3.359375 Z M 9.246094 -3.359375 "/></g></g></g><g fill="#000000" fill-opacity="1"><g transform="translate(38.790787, 29.957944)"><g><path d="M 10.785156 -15.839844 C 8.535156 -15.839844 6.902344 -15.007812 5.792969 -13.589844 L 5.792969 -15.410156 L 1.816406 -15.410156 L 1.816406 6.164062 L 5.792969 6.164062 L 5.792969 -1.816406 C 6.902344 -0.402344 8.535156 0.429688 10.785156 0.429688 C 14.917969 0.429688 18.304688 -3.113281 18.304688 -7.703125 C 18.304688 -12.296875 14.917969 -15.839844 10.785156 -15.839844 Z M 10.046875 -3.359375 C 7.613281 -3.359375 5.792969 -5.117188 5.792969 -7.703125 C 5.792969 -10.292969 7.613281 -12.050781 10.046875 -12.050781 C 12.511719 -12.050781 14.332031 -10.292969 14.332031 -7.703125 C 14.332031 -5.117188 12.511719 -3.359375 10.046875 -3.359375 Z M 10.046875 -3.359375 "/></g></g></g><g fill="#000000" fill-opacity="1"><g transform="translate(58.082233, 29.957944)"><g><path d="M 5.175781 -6.070312 L 16.796875 -6.070312 C 16.886719 -6.59375 16.949219 -7.117188 16.949219 -7.703125 C 16.949219 -12.234375 13.714844 -15.839844 9.152344 -15.839844 C 4.316406 -15.839844 1.015625 -12.296875 1.015625 -7.703125 C 1.015625 -3.113281 4.285156 0.429688 9.460938 0.429688 C 12.417969 0.429688 14.730469 -0.769531 16.179688 -2.867188 L 12.972656 -4.714844 C 12.296875 -3.820312 11.0625 -3.175781 9.523438 -3.175781 C 7.425781 -3.175781 5.730469 -4.039062 5.175781 -6.070312 Z M 5.117188 -9.152344 C 5.578125 -11.125 7.027344 -12.265625 9.152344 -12.265625 C 10.816406 -12.265625 12.480469 -11.371094 12.972656 -9.152344 Z M 5.117188 -9.152344 "/></g></g></g><g fill="#000000" fill-opacity="1"><g transform="translate(75.986916, 29.957944)"><g><path d="M 5.792969 -12.757812 L 5.792969 -15.410156 L 1.816406 -15.410156 L 1.816406 0 L 5.792969 0 L 5.792969 -7.367188 C 5.792969 -10.601562 8.414062 -11.527344 10.476562 -11.28125 L 10.476562 -15.71875 C 8.535156 -15.71875 6.59375 -14.855469 5.792969 -12.757812 Z M 5.792969 -12.757812 "/></g></g></g></g></g></g><g clip-path="url(#8e8c0d7905)"><g transform="matrix(1, 0, 0, 1, 2, 24)"><g clip-path="url(#0865fbc548)"><g clip-path="url(#ec28794284)"><g fill="#000000" fill-opacity="1"><g transform="translate(0.0926087, 29.886302)"><g><path d="M 19.167969 -15.410156 L 16.550781 -5.917969 L 13.746094 -15.410156 L 9.984375 -15.410156 L 7.179688 -5.949219 L 4.5625 -15.410156 L 0.339844 -15.410156 L 5.238281 0 L 9.03125 0 L 11.863281 -9.339844 L 14.699219 0 L 18.492188 0 L 23.390625 -15.410156 Z M 19.167969 -15.410156 "/></g></g></g></g><g fill="#000000" fill-opacity="1"><g transform="translate(23.821706, 29.886302)"><g><path d="M 9.152344 0.429688 C 13.683594 0.429688 17.320312 -3.113281 17.320312 -7.703125 C 17.320312 -12.296875 13.683594 -15.839844 9.152344 -15.839844 C 4.621094 -15.839844 1.015625 -12.296875 1.015625 -7.703125 C 1.015625 -3.113281 4.621094 0.429688 9.152344 0.429688 Z M 9.152344 -3.453125 C 6.8125 -3.453125 4.992188 -5.207031 4.992188 -7.703125 C 4.992188 -10.199219 6.8125 -11.957031 9.152344 -11.957031 C 11.527344 -11.957031 13.34375 -10.199219 13.34375 -7.703125 C 13.34375 -5.207031 11.527344 -3.453125 9.152344 -3.453125 Z M 9.152344 -3.453125 "/></g></g></g><g fill="#000000" fill-opacity="1"><g transform="translate(42.127011, 29.886302)"><g><path d="M 5.792969 -12.757812 L 5.792969 -15.410156 L 1.816406 -15.410156 L 1.816406 0 L 5.792969 0 L 5.792969 -7.367188 C 5.792969 -10.601562 8.414062 -11.527344 10.476562 -11.28125 L 10.476562 -15.71875 C 8.535156 -15.71875 6.59375 -14.855469 5.792969 -12.757812 Z M 5.792969 -12.757812 "/></g></g></g><g clip-path="url(#cb345b4a97)"><g fill="#000000" fill-opacity="1"><g transform="translate(53.097867, 29.886302)"><g><path d="M 16.027344 0 L 9.644531 -7.796875 L 15.839844 -15.410156 L 11.09375 -15.410156 L 5.792969 -8.628906 L 5.792969 -21.574219 L 1.816406 -21.574219 L 1.816406 0 L 5.792969 0 L 5.792969 -6.996094 L 11.402344 0 Z M 16.027344 0 "/></g></g></g></g></g></g></g></g></g></g></g></g></g></svg>